<?xml version="1.0" encoding="utf-8"?>
<!-- Generator: Adobe Illustrator 25.2.1, SVG Export Plug-In . SVG Version: 6.00 Build 0)  -->
<svg version="1.1" id="Layer_1" xmlns="http://www.w3.org/2000/svg" xmlns:xlink="http://www.w3.org/1999/xlink" x="0px" y="0px"
	 viewBox="0 0 202.5 196.6" style="enable-background:new 0 0 202.5 196.6;" xml:space="preserve">
<style type="text/css">
	.st0{fill:#E3CBA6;stroke:#1D1D1B;stroke-miterlimit:10;}
	.st1{fill:#FFFFFF;stroke:#1D1D1B;stroke-miterlimit:10;}
	.st2{fill:none;stroke:#1D1D1B;stroke-miterlimit:10;}
	.st3{fill:#1B1B1B;stroke:#1B1B1B;stroke-width:0.75;stroke-miterlimit:10;}
	.st4{fill:#1B1C1C;stroke:#1B1B1B;stroke-miterlimit:10;}
	.st5{fill:#028DCA;stroke:#028DCA;stroke-width:0.75;stroke-miterlimit:10;}
	.st6{fill:#028DCA;stroke:#028DCA;stroke-miterlimit:10;}
	.st7{fill:#1B1D1C;stroke:#1B1D1C;stroke-miterlimit:10;}
</style>
<path class="st0" d="M36.8,163c-4.1-4.1-7.2-9-9.2-14.5l-9.3-15.4L5.6,108.4l-5-6.7c0.2-0.4,1-2.2,2.5-2.5c1.1-0.2,2.2,0.4,3.6,1.3
	c0.5,0.3,1.3,0.9,1.7,1.1c0,0,0.7,0.5,1.3,0.9c3.8,2.8,10.9,15.3,10.9,15.3c0.3,0.5,0.5,0.9,0.7,1.2c-1.6,0.6-2.9,1.9-3.6,3.4
	c-1.2,3.3,1.9,7,2.5,7.6s1.7,1.8,2.6,2.7s1.2,1.1,2,2c0.7,0.7,1.3,1.4,2.7,2.8c0.9,1,1.7,1.8,2.4,2.4c1.4,1.4,2.2,2.1,4.1,4.1
	c5.1,4.9,5.6,6,8.6,8.7c2.1,1.9,4.4,3.6,6.9,5.1c-1.1-2.6-2.6-5.1-4.4-7.2c-0.9-1-1.8-1.9-2.9-2.7c-0.6-0.4-1.3-0.9-1.6-1.1
	c-0.9-0.6-1.5-1-1.9-1.2c-1.1-0.7-2.1-1.5-3-2.4c-4-3.6-7.4-7.1-7.4-7.1c-2.7-2.8-5.2-5.4-7.3-7.7c-0.8-0.7-1.3-1.5-1.5-2.5
	c-0.1-0.6-0.1-1.3,0-1.9c0.4-1,1.2-1.8,2.1-2.3c1.4-0.6,3-0.3,5.8,0.9c2.9,1.3,5.6,3,8.1,5c2.6,2,5.2,4.2,7.6,6.5l11.2,6.8l16.1,6.4
	l11.5,6.9l9.8,9.5c0,0,8.8,6.9,8.6,17.8s0,13.5,0,13.5l-0.1,0.5l-31.4-0.3v-7.9c-5.4-5.8-11.5-10.9-18.2-15.2
	C44.9,168.9,41.2,167.4,36.8,163z"/>
<path class="st0" d="M54.5,137.4c-1,0.3-2,0.2-3-0.1c-15.6-11.9-21.5-16.1-23.3-17c-0.8-0.4-1.5-0.9-2.3-1.3c-1.8-1-3-1.5-4-2.9
	c-0.1-0.2-0.2-0.3-0.2-0.4c-0.5-4.1-1-8.4-2-12.8l-3-13.7l-0.1-2.2c0.5-0.7,1.3-1.1,2.1-1.2c1,0,2.4,0.7,4.9,5.6
	c1.7,3.6,3.1,7.4,4,11.3c1.1,3.9,1.4,6,3,9.3c0.2,0.5,2.2,4.6,3.1,4.4c0.3-0.1,0.4-1,0.4-1.8c-1.8-7.2-3.6-14.4-5.4-21.7
	c0.2-0.8,0.7-1.4,1.4-1.8c1.3-0.4,3.3,0.8,4.2,3.4c0.6,1.9,1.3,3.8,2,5.8c0.8,2.3,1.7,4.6,2.5,6.9l2.9,10.1c0.7,2.6,1.7,5.1,2.9,7.5
	c0.2,0.4,0.4,0.8,0.6,1.1l1,0.1l0.3-0.9c-0.9-3-1.7-6.1-2.6-9.1c-0.2-0.7-0.3-1.1-0.3-1.1c-0.3-0.9-0.5-1.8-0.8-2.6
	c-0.3-0.8-0.5-1.7-0.5-2.6c0-0.1,0-0.2,0-0.4c0.1-0.8,0.6-1.6,1.3-2c1-0.3,2.5,2.1,2.9,2.8c1.8,3,2.1,5.3,3.3,9.6
	c0.5,1.9,1.1,3.8,2.2,7.6c1,3.2,1.9,5.8,2.5,7.6c0.3,0.5,0.4,1.1,0.3,1.6C54.8,136.8,54.7,137.1,54.5,137.4z"/>
<path class="st0" d="M102.9,195.8l30.9,0.3c0-2.3-0.1-4.7-0.1-7c-0.1-3.5,6.4-8.3,9.3-10s21.7-15,21.7-15s7.2-6.9,9.6-14.2
	s11.7-18.7,12.7-21s14.8-26.9,14.8-26.9c0.4-1,0.3-1.5,0.1-1.8c-0.9-1.4-5.6,0.3-7.1,0.9l-5.5,5.8l-7,10.6c0,0-0.5,1.9,0.8,2.5
	s4.3,3.4,2.4,6l-2.8,4.6l-5.3,7.4l-4.9,5.6l-7.5,5.7l-11.7,8.5c0-0.5,0.1-1,0.3-1.5c0.2-0.6,0.5-1.1,0.9-1.5
	c0.7-0.9,1.5-1.7,2.3-2.5c2.2-1.9,1.9-2.1,3.7-3.6c1.4-1.2,1.6-1.1,5-3.4c2-1.3,3.1-2.1,4.3-3c1.9-1.6,3.7-3.4,5.3-5.3
	c2.4-2.7,4.6-5.6,6.6-8.6l1.3-1.7c0,0,1.5-5.3-3.9-4.7s-6.6,2.1-6.6,2.1l-6.2,3.9c0,0-5.3,4.3-7.1,5.9s-4,4-5.8,4.8
	s-7.9,3.1-7.9,3.1l-10.2,4.1l-7.9,4.4l-8.2,5.9l-7.4,6.3l-5.6,6.6c-1,1.4-1.9,2.9-2.4,4.6c-0.3,1-0.6,2.1-0.8,3.2
	c-0.3,1.5-0.4,3.1-0.4,4.7C102.5,186.9,102.9,195.4,102.9,195.8z"/>
<path class="st1" d="M195,99.7"/>
<path class="st0" d="M180.9,114.5l-0.6,1.3l-13.7,9.8l-16.7,12c0,0-5.3,1.7-3.3-1c1.4-2.2,2.5-4.6,3.3-7.2c0.8-3.1,1.7-6.2,2.5-9.3
	c1.1-3.6,2.8-7,5.2-10c0.8-0.9,2.5-3,3.3-2.7s0.4,2.2,0.3,3.2c-0.7,2.4-1.4,4.8-2.1,7.2l-3.1,9.5c0,0,0.3,0.1,0.8-0.2
	c1.1-0.9,1.9-2.1,2.3-3.5c1-3.5,2.4-6.9,3.4-10.5c0.5-1.7,1-3.1,1.3-4.1c0.9-2.8,1.7-5.7,2.6-8.5c0.7-1.8,1.6-3.5,2.8-5.1
	c0.8-1.1,1.6-2.1,2.6-3.1c0.6-0.5,1.4-1.1,2-0.8c0.7,0.4,0.4,2.3,0.3,3.1c-1.3,7.8-5,21.6-5,21.6l0,0c1.2-1,2.3-2.2,3.1-3.6
	c2.1-3.4,2.2-6.4,2.9-10.3c0.6-3.5,1.6-6.9,2.9-10.3c0.4-1.5,1.1-3,2.1-4.2c0.9-1,2.5-2.9,4.5-2.6c0.9,0.1,1.7,0.6,2.3,1.4
	c0.8,1.1,0.4,2.6-0.2,4.6c-1,3.3-1.9,5.7-2.2,6.6c-1,2.9-1.7,5.9-2.2,9C181.7,108.9,181.2,111.6,180.9,114.5z"/>
<path class="st1" d="M197.5,92.1"/>
<path class="st2" d="M11.2,127.8"/>
<path class="st2" d="M30.3,130.1"/>
<path class="st2" d="M60.4,150.4"/>
<path class="st2" d="M40.2,122.6"/>
<path class="st3" d="M99.8,139c1.9-1.4,3.6-2.5,4.8-3.4c1.4-1,2.2-1.5,3.1-2.1c0.5-0.3,1.5-1,2.9-1.8l1.5-0.9l2.5-1.5
	c0.7-0.4,2.1-1.2,4.8-2.7c2.4-1.4,2.8-1.6,3.9-2.2c4.7-2.8,9.9-6.2,9.9-6.2c7.1-4.7,10.7-7,13.6-9.2s7.1-5.4,11.8-9.6
	c6.3-5.8,11.5-12.6,15.4-20.2c1.4-3.1,2.6-6.4,3.6-9.7c0.9-3.2,1.7-6.5,2.1-9.8c0.4-2.3,0.5-4.6,0.5-6.9c-0.1-2.1-0.4-4.2-0.8-6.3
	c-0.3-2.1-0.8-4.1-1.3-6.1c-0.5-1.9-1.2-3.8-1.9-5.6c-0.9-1.9-1.9-3.6-3.1-5.3c-1.2-1.8-2.6-3.4-4.2-4.9c-1.9-1.7-3.9-3.2-6.1-4.5
	c-1.8-1.1-3.6-2.1-5.5-3c-1.6-0.6-3.2-1.2-4.9-1.7c-5.5-1.6-10.6-2-10.7-1.7s6.6,0.8,14.4,5.2c3.2,1.8,6.2,4,8.8,6.4
	c2.5,2.3,4.5,5.2,5.9,8.3c1.2,2.7,1.6,4.8,2.3,8.9c0.6,3,0.9,6.1,1.1,9.2c0.1,2.1,0,4.2-0.2,6.3c-0.4,2.9-1,5.7-2,8.5
	c-1.5,5.4-3.7,10.5-6.7,15.3c-1,1.5-2.2,3.3-3.8,5.3c-2.1,2.8-4.4,5.4-6.8,7.9c-3.9,4-8.1,7.8-12.6,11.2c-2.1,1.7-7.4,5.7-14.7,10.5
	c-2.6,1.7-15.3,9.4-18.8,12.6l-2.4,2.2c-2.3,2.1-2.6,2.4-3,2.8C101.9,135.8,100.8,137.3,99.8,139z"/>
<path class="st4" d="M174,19.5c-3.4-4.6-7.5-8.6-12.2-11.9c-3.2-1.8-6.7-3.3-10.2-4.5c-3.5-1.2-7-2-10.6-2.5
	c-7.2-0.4-14.4,0.6-21.2,3c-6.4,2.6-12.1,6.6-16.6,11.8c-3,3.2-4.9,7.2-5.4,11.6l-0.1,3.4c0.5-1.9,1.2-3.7,2.1-5.4
	c1-2,2.3-3.9,3.8-5.6c2.1-2.1,4.3-4.1,6.8-5.8c1.9-1.4,3.9-2.6,6-3.7c5.1-2.4,10.6-3.8,16.3-4.3c5.5-0.7,11-0.5,16.5,0.5
	c1.9,0.5,3.8,1.1,5.9,1.9c2.8,1,5.4,2.1,7.7,3.2c1.3,0.7,2.6,1.4,3.9,2.3c1.5,1.1,3,2.2,4.3,3.4C172.1,17.9,173.2,18.9,174,19.5z"/>
<path class="st5" d="M106.5,139.4c-1.9-1.4-3.6-2.5-4.8-3.4c-1.4-1-2.2-1.5-3.1-2.1c-0.5-0.3-1.5-1-2.9-1.8l-1.5-0.9
	c-1.2-0.7-1.9-1.1-2.5-1.5s-2.1-1.2-4.8-2.7c-2.4-1.4-2.8-1.6-3.9-2.2c-4.7-2.8-9.9-6.2-9.9-6.2c-7.1-4.7-10.7-7-13.6-9.2
	s-7.1-5.4-11.8-9.6c-3.6-3.3-6.8-6.9-9.6-10.8c-2.1-3-4.1-6.1-5.7-9.4c-1.4-3.1-2.6-6.4-3.6-9.7c-0.9-3.2-1.7-6.5-2.2-9.8
	c-0.4-2.3-0.5-4.6-0.4-6.9c0.1-2.1,0.4-4.2,0.8-6.3c0.3-2.1,0.8-4.1,1.3-6.1c0.5-1.9,1.2-3.8,1.9-5.6c1.8-3.8,4.3-7.2,7.3-10.2
	c1.9-1.7,3.9-3.2,6.1-4.5c1.8-1.1,3.6-2.1,5.5-3c1.6-0.6,3.2-1.2,4.9-1.7c5.5-1.6,10.6-2,10.7-1.7s-6.6,0.8-14.4,5.2
	c-3.2,1.8-6.2,4-8.8,6.4c-2.5,2.3-4.5,5.2-5.9,8.3c-1.2,2.7-1.6,4.8-2.3,8.9c-0.6,3-0.9,6.1-1.1,9.2c-0.1,2.1,0,4.2,0.2,6.3
	c0.3,2.9,1,5.7,2,8.5c1.5,5.4,3.7,10.5,6.6,15.2c1,1.5,2.2,3.3,3.8,5.3c2.1,2.8,4.4,5.5,6.8,8c3.9,4,8.1,7.8,12.6,11.2
	c2.1,1.7,7.3,5.7,14.7,10.5c2.6,1.7,15.3,9.4,18.8,12.6l2.4,2.2c2.3,2.1,2.6,2.3,3,2.8C104.3,136.3,105.5,137.8,106.5,139.4z"/>
<path class="st6" d="M28.7,19.7c3.4-4.6,7.5-8.6,12.2-11.9c6.5-3.6,13.5-6,20.9-7.1c3.8-0.2,7.7,0,11.4,0.6c3.3,0.5,6.6,1.3,9.8,2.4
	c6.4,2.6,12.1,6.6,16.6,11.8c3,3.2,4.9,7.2,5.4,11.6l0.1,3.4c-0.5-1.9-1.2-3.7-2.1-5.4c-1-2-2.3-3.9-3.8-5.6
	c-2.1-2.1-4.4-4.1-6.8-5.8c-1.9-1.4-3.9-2.6-6-3.7c-2.7-1.2-5.5-2.2-8.3-2.9c-2.6-0.7-5.3-1.1-8-1.3c-2.4-0.3-4.9-0.4-7.3-0.4
	c-3.1,0.1-6.2,0.4-9.2,1c-1.9,0.5-3.8,1.1-5.9,1.9c-2.8,1-5.4,2.1-7.7,3.2c-1.4,0.7-2.7,1.4-3.9,2.3c-1.5,1.1-2.9,2.2-4.3,3.4
	C30.5,18.1,29.4,19,28.7,19.7z"/>
<path class="st7" d="M69.2,85.2l9.7-19.4c0,0-8.9-13.6-6.4-15.3c0,0,1.1-4.4,9.2,10.6c0,0,6.7,6.8,18.6-7.6c0,0,4.1,4.5-12.1,15
	c-2,6.8-5.8,12.9-11,17.7c-1.4,0.2-1.8-0.1-2-0.3c-0.4-0.7,0.8-1.8,2.5-4.9c0.3-0.6,0.5-1,0.7-1.3c-0.2-0.1-0.5-0.2-0.8-0.2
	c-1,0-1.8,1.2-2.2,1.8C73.2,84.4,70.5,87.6,69.2,85.2z"/>
<path class="st7" d="M86.2,60.6c1.3,0.2,2.5-0.1,3.6-0.8c1.3-1,2-2.6,2-4.2c0-1.2-0.5-2.4-1.3-3.3c-1-1-2.3-1.6-3.7-1.6
	c-1.8-0.4-3.8,0.3-4.9,1.8c-0.6,0.9-0.9,1.9-0.8,3c0,0.2,0.1,3.2,2.5,4.6C84.4,60.4,85.3,60.6,86.2,60.6z"/>
<path class="st6" d="M126.9,83.9c0,0-1,3.9-7.5-8.6l-4.5-9.5c0,0-11.6-9.4-11.2-10.6c-0.1-0.9,0.1-1.2,0.3-1.4
	c0.7-0.4,2.3,1.4,5.7,4c2.2,1.7,3.4,2.5,4.8,2.9c2.1,0.5,4.4,0.2,6.3-0.8c1.3-0.8,2.4-1.9,3.2-3.2c0.8-1.2,1.5-2.5,2-3.8
	c0.3-0.8,0.6-1.5,1.1-2.1c0.5-0.6,1.1-1.1,1.9-1.5c0,0,5.1,0-4.5,13.6c0.2,4.2,1.6,8.2,4.1,11.6c0,0,5.4,8.2,3.6,9.1
	s-6.2-5.7-6.2-5.7S127.4,83.6,126.9,83.9z"/>
<path class="st6" d="M117.9,58.4c1,0,2-0.4,2.8-1c1.1-1,1.7-2.6,1.5-4.1c0-1.6-0.8-3-2.1-3.9c-0.8-0.5-1.8-0.7-2.8-0.6
	c-1.7,0.1-3.3,1.1-4.3,2.6c-0.4,0.7-0.6,1.5-0.6,2.2c0.2,1.6,1.1,3.1,2.5,4C115.9,58.2,116.9,58.5,117.9,58.4z"/>
</svg>
