<svg xmlns="http://www.w3.org/2000/svg" xmlns:xlink="http://www.w3.org/1999/xlink" viewBox="0 0 256.96 271.03"><defs><style>.cls-1{fill:url(#linear-gradient);}.cls-2{fill:#cbbba0;}.cls-2,.cls-3,.cls-4{stroke:#1d1d1b;}.cls-2,.cls-3,.cls-4,.cls-5,.cls-6,.cls-7,.cls-8,.cls-9{stroke-miterlimit:10;}.cls-3{fill:#fff;}.cls-4{fill:none;}.cls-5{fill:#1b1b1b;}.cls-5,.cls-6{stroke:#1b1b1b;}.cls-5,.cls-7{stroke-width:0.75px;}.cls-6{fill:#1b1c1c;}.cls-7,.cls-8{fill:#028dca;stroke:#028dca;}.cls-9{fill:#1b1d1c;stroke:#1b1d1c;}</style><linearGradient id="linear-gradient" x1="11.98" y1="144.49" x2="268.94" y2="144.49" gradientUnits="userSpaceOnUse"><stop offset="0" stop-color="#fff"/><stop offset="1" stop-color="#fff"/></linearGradient></defs><g id="Layer_1" data-name="Layer 1"><path class="cls-1" d="M95,280h89.53l-.54-8.86s-6.44.44-7.86-2.62c0,0-13.32.55-14-6,0,0-8.19-46.3-5.35-47.83a48.22,48.22,0,0,0,15.07-8.95,106,106,0,0,0,10.92-12c2.17-2.66,4.78-5,6.66-7.86,1.37-2.11,2.37-4.08,4.67-4.92a13.68,13.68,0,0,1,4.39-.43,46.28,46.28,0,0,1,5,.22s7.87-4,10.49-3.93h2.84S243,174,249.48,128.65c0,0,20.2-72,19.44-73.38,0,0,.55-3.49-3.49-3.38h-33S222.51,54,225,38.56L228.3,9.41,51.74,9l3.6,37.24a2.67,2.67,0,0,1,0,1.64c-.43,1.27-1.86,1.82-3,2.18a27,27,0,0,1-7.75,1.51c-4.73,0-9.46.11-14.19,0-3.56-.07-6.14-.11-9.5-.11-3.52,0-6.4.06-8.3.11,0,0-2.29,5.89,1.64,15.07L37.11,151.8S41.47,180,87.33,181.28A113.26,113.26,0,0,0,122.82,215c.13,6-.1,11.33-.43,15.72-.49,6.35-.71,4.22-2.73,19.65a46.31,46.31,0,0,1-3.39,13.54c-.5,1.16-1,2.1-1.31,2.73a24.43,24.43,0,0,1-11,1.86s-1.75,3.6-8.19,2.84L95,280" transform="translate(-11.98 -8.97)"/><path class="cls-2" d="M92.6,169A27.49,27.49,0,0,1,86,159l-6.71-10.64-9-17.11-3.6-4.65c.13-.31.71-1.55,1.81-1.75.79-.14,1.56.32,2.6.93.38.22.92.58,1.22.78l.94.65c2.7,1.93,7.84,10.58,7.84,10.58.22.36.39.64.48.81A4.47,4.47,0,0,0,79,141c-.83,2.29,1.37,4.8,1.79,5.28s1.21,1.26,1.85,1.86.85.76,1.45,1.37.9.93,1.92,1.95c.66.67,1.21,1.21,1.69,1.67,1,1,1.54,1.49,2.94,2.8,3.65,3.42,4,4.17,6.18,6a36.15,36.15,0,0,0,4.92,3.52,18,18,0,0,0-3.17-5,16.87,16.87,0,0,0-2.06-1.8c-.41-.3-.9-.62-1.11-.75-.67-.43-1.08-.67-1.37-.85a14.64,14.64,0,0,1-2.18-1.67c-2.86-2.47-5.28-4.89-5.28-4.89-2-2-3.71-3.75-5.24-5.31a3.44,3.44,0,0,1-1.08-1.73,3.08,3.08,0,0,1,0-1.31,3.27,3.27,0,0,1,1.52-1.6c1-.45,2.12-.24,4.14.65a28.51,28.51,0,0,1,5.83,3.43,66.7,66.7,0,0,1,5.42,4.5l8,4.72,11.53,4.45,8.22,4.8,7,6.54s6.28,4.78,6.16,12.32,0,9.34,0,9.34l-.05.33-22.48-.22v-5.46a65.48,65.48,0,0,0-13.06-10.5C98.42,173,95.77,172,92.6,169Z" transform="translate(-11.98 -8.97)"/><path class="cls-2" d="M105.32,151.23a3.52,3.52,0,0,1-2.16-.11C92,142.89,87.77,140,86.46,139.36c-.55-.29-1.08-.62-1.64-.9a7.36,7.36,0,0,1-2.89-2c-.08-.11-.14-.21-.18-.27-.37-2.8-.73-5.77-1.43-8.83l-2.17-9.48-.08-1.53a2.25,2.25,0,0,1,1.52-.84c.72,0,1.74.47,3.49,3.86A39.54,39.54,0,0,1,86,127.18a30.81,30.81,0,0,0,2.15,6.44c.18.34,1.61,3.19,2.2,3,.25-.08.29-.67.27-1.21l-3.85-15a1.89,1.89,0,0,1,1-1.21c.91-.29,2.35.56,3,2.35.45,1.32.92,2.65,1.41,4Q93.1,128,94,130.32l2.07,7a27,27,0,0,0,2.08,5.21c.14.27.29.53.43.78l.7,0,.19-.61-1.87-6.32-.23-.78c-.2-.59-.36-1.2-.54-1.8a4.69,4.69,0,0,1-.33-1.78,1,1,0,0,1,0-.24,1.82,1.82,0,0,1,.93-1.4c.75-.2,1.79,1.46,2.11,2,1.3,2.08,1.51,3.64,2.33,6.67.35,1.29.76,2.61,1.61,5.24.72,2.22,1.34,4,1.78,5.24a1.9,1.9,0,0,1,.22,1.13A2.07,2.07,0,0,1,105.32,151.23Z" transform="translate(-11.98 -8.97)"/><path class="cls-2" d="M140,191.6l22.12.2L162,187s4.58-5.79,6.66-7,15.57-10.36,15.57-10.36,5.17-4.74,6.92-9.8,8.41-12.93,9.07-14.54,10.58-18.55,10.58-18.55c.3-.66.24-1,.1-1.21-.66-1-4,.22-5.12.62l-4,4-5,7.37s-.38,1.3.58,1.74,3.06,2.32,1.73,4.13l-2,3.15-3.81,5.07-3.52,3.87-5.4,4L176,165.38a3,3,0,0,1,.19-1,3.53,3.53,0,0,1,.66-1.05,17.24,17.24,0,0,1,1.68-1.71c1.58-1.32,1.33-1.44,2.63-2.51a39.29,39.29,0,0,1,3.55-2.32c1.42-.91,2.25-1.45,3.1-2.09a28.87,28.87,0,0,0,3.81-3.65,58,58,0,0,0,4.74-6l.95-1.18s1.05-3.65-2.76-3.23-4.74,1.42-4.74,1.42l-4.44,2.73s-3.81,3-5.06,4.1a22.62,22.62,0,0,1-4.15,3.3c-1.25.57-5.62,2.12-5.62,2.12l-7.3,2.86-5.68,3-5.86,4.08-5.3,4.37-4,4.59a11.38,11.38,0,0,0-1.74,3.15,12.42,12.42,0,0,0-.56,2.22,19.76,19.76,0,0,0-.31,3.24C139.73,185.51,140,191.34,140,191.6Z" transform="translate(-11.98 -8.97)"/><path class="cls-3" d="M206,125.22" transform="translate(-11.98 -8.97)"/><path class="cls-2" d="M195.87,135.43l-.46.9-9.79,6.74-12,8.32s-3.79,1.18-2.39-.67a20.22,20.22,0,0,0,2.39-4.95l1.8-6.44a20,20,0,0,1,3.73-6.9c.54-.64,1.77-2.11,2.36-1.84s.31,1.53.19,2.22c-.5,1.67-1,3.34-1.51,5L178,144.35s.2.11.59-.16a4.63,4.63,0,0,0,1.64-2.42c.7-2.45,1.72-4.81,2.46-7.25.36-1.18.69-2.17.92-2.86l1.84-5.91a16.58,16.58,0,0,1,2-3.55,17.7,17.7,0,0,1,1.84-2.11c.41-.33,1-.74,1.42-.55s.31,1.58.2,2.17c-.95,5.39-3.58,14.92-3.58,14.92h0a11.14,11.14,0,0,0,2.24-2.48c1.52-2.33,1.58-4.43,2.07-7.1a37.07,37.07,0,0,1,2.08-7.13,7,7,0,0,1,1.5-2.89c.63-.72,1.76-2,3.2-1.83a2.49,2.49,0,0,1,1.62.94c.54.79.29,1.76-.14,3.16-.7,2.29-1.38,3.93-1.59,4.53a42.07,42.07,0,0,0-1.59,6.26C196.41,131.6,196.11,133.39,195.87,135.43Z" transform="translate(-11.98 -8.97)"/><path class="cls-3" d="M207.74,120" transform="translate(-11.98 -8.97)"/><path class="cls-4" d="M73.31,177.67" transform="translate(-11.98 -8.97)"/><path class="cls-4" d="M88,146.21" transform="translate(-11.98 -8.97)"/><path class="cls-4" d="M109.53,160.25" transform="translate(-11.98 -8.97)"/><path class="cls-4" d="M95.08,141.06" transform="translate(-11.98 -8.97)"/><path class="cls-5" d="M137.77,152.34c1.37-1,2.54-1.76,3.44-2.36s1.57-1.06,2.24-1.48c.37-.23,1.1-.69,2.07-1.25l1.1-.62c.85-.49,1.36-.8,1.76-1s1.48-.81,3.41-1.87c1.72-.93,2-1.08,2.77-1.52,3.38-1.9,7.12-4.27,7.12-4.27,5.09-3.22,7.64-4.83,9.74-6.33s5.08-3.75,8.43-6.66a50.69,50.69,0,0,0,6.9-7.48,49.71,49.71,0,0,0,4.11-6.49,50.5,50.5,0,0,0,2.57-6.7A48.69,48.69,0,0,0,195,97.53a23,23,0,0,0,.32-4.75,28.08,28.08,0,0,0-.57-4.36,38.65,38.65,0,0,0-.95-4.22,34.54,34.54,0,0,0-1.38-3.85,24.53,24.53,0,0,0-5.22-7,35.68,35.68,0,0,0-4.36-3.12,34.91,34.91,0,0,0-4-2.08,36.58,36.58,0,0,0-3.49-1.18c-3.91-1.1-7.58-1.42-7.63-1.17s4.72.58,10.32,3.63a33.69,33.69,0,0,1,6.33,4.46,17.7,17.7,0,0,1,4.23,5.73,23.16,23.16,0,0,1,1.68,6.17,53.81,53.81,0,0,1,.8,6.35,27.64,27.64,0,0,1-.16,4.34,26.52,26.52,0,0,1-1.41,5.86,38.22,38.22,0,0,1-1.62,4.59,39.28,39.28,0,0,1-3.17,6c-.69,1-1.59,2.26-2.69,3.65a67.4,67.4,0,0,1-4.87,5.5,81.71,81.71,0,0,1-9,7.73c-1.51,1.15-5.26,3.95-10.5,7.26-1.87,1.19-11,6.48-13.47,8.73l-1.74,1.54c-1.63,1.45-1.84,1.63-2.14,1.92A16.31,16.31,0,0,0,137.77,152.34Z" transform="translate(-11.98 -8.97)"/><path class="cls-6" d="M190.92,69.81A37.24,37.24,0,0,0,186.5,65a38.1,38.1,0,0,0-4.35-3.41,44,44,0,0,0-7.3-3.14,44.51,44.51,0,0,0-7.66-1.75A41.1,41.1,0,0,0,152,58.79a32.73,32.73,0,0,0-5.77,3,31.42,31.42,0,0,0-6.13,5.19,14,14,0,0,0-2.57,3.62,13.33,13.33,0,0,0-1.29,4.37l-.08,2.33a18.76,18.76,0,0,1,1.49-3.74,19,19,0,0,1,2.69-3.86,36.29,36.29,0,0,1,4.85-4,37,37,0,0,1,4.32-2.59,35.73,35.73,0,0,1,5.93-2,36.53,36.53,0,0,1,5.73-.93,39.45,39.45,0,0,1,5.22-.27,39,39,0,0,1,6.6.66c1.34.36,2.74.78,4.2,1.29,2,.7,3.87,1.45,5.54,2.2a22.64,22.64,0,0,1,2.78,1.58,38.61,38.61,0,0,1,3.11,2.34C189.58,68.68,190.37,69.34,190.92,69.81Z" transform="translate(-11.98 -8.97)"/><path class="cls-7" d="M142.56,152.65c-1.37-1-2.54-1.75-3.44-2.36s-1.57-1.06-2.24-1.48c-.37-.23-1.1-.69-2.07-1.24l-1.1-.63c-.85-.48-1.36-.8-1.76-1s-1.48-.81-3.42-1.87c-1.71-.93-2-1.07-2.76-1.52-3.38-1.9-7.12-4.26-7.12-4.26-5.09-3.23-7.64-4.84-9.74-6.34s-5.08-3.75-8.43-6.66a49.53,49.53,0,0,1-11-14,49.49,49.49,0,0,1-4.11-13.44A23,23,0,0,1,85,93.1a27.93,27.93,0,0,1,.57-4.36,38.77,38.77,0,0,1,1-4.23,34.27,34.27,0,0,1,1.38-3.84A23.81,23.81,0,0,1,90.16,77a24.42,24.42,0,0,1,3-3.38,35.8,35.8,0,0,1,8.32-5.2A35.63,35.63,0,0,1,105,67.25c3.91-1.1,7.58-1.41,7.63-1.17s-4.72.59-10.32,3.63A34.16,34.16,0,0,0,96,74.17a17.65,17.65,0,0,0-4.23,5.74A23.07,23.07,0,0,0,90,86.07a54.06,54.06,0,0,0-.8,6.35,27.8,27.8,0,0,0,.16,4.35,26,26,0,0,0,1.41,5.85,38.22,38.22,0,0,0,1.62,4.59,39.28,39.28,0,0,0,3.17,6c.69,1,1.59,2.26,2.69,3.66a67.18,67.18,0,0,0,4.87,5.49,81.71,81.71,0,0,0,9,7.73c1.51,1.15,5.26,3.95,10.5,7.27,1.87,1.18,10.95,6.48,13.47,8.72l1.74,1.55c1.63,1.45,1.83,1.62,2.14,1.91A16.64,16.64,0,0,1,142.56,152.65Z" transform="translate(-11.98 -8.97)"/><path class="cls-8" d="M86.81,69.94a37.17,37.17,0,0,1,4.42-4.81,38.06,38.06,0,0,1,4.34-3.41,44.15,44.15,0,0,1,15-4.89,41.75,41.75,0,0,1,8.19.41,40.8,40.8,0,0,1,7,1.69,31.62,31.62,0,0,1,5.77,3,32.18,32.18,0,0,1,6.14,5.19,14,14,0,0,1,2.56,3.62,13.78,13.78,0,0,1,1.3,4.37l.08,2.33a19.06,19.06,0,0,0-4.18-7.6,36.94,36.94,0,0,0-4.85-4,37.84,37.84,0,0,0-4.32-2.59,36.49,36.49,0,0,0-5.94-2,36.11,36.11,0,0,0-5.72-.92,37.86,37.86,0,0,0-5.23-.28,40.14,40.14,0,0,0-6.6.66c-1.33.36-2.74.79-4.2,1.29-2,.7-3.87,1.45-5.53,2.21a19.66,19.66,0,0,0-2.78,1.58A38.74,38.74,0,0,0,89.12,68C88.15,68.82,87.36,69.47,86.81,69.94Z" transform="translate(-11.98 -8.97)"/><path class="cls-9" d="M115.82,115.17l6.93-13.37s-6.35-9.37-4.57-10.59c0,0,.79-3,6.57,7.3,0,0,4.78,4.71,13.34-5.27,0,0,2.94,3.09-8.67,10.38a27.06,27.06,0,0,1-2.65,5.9,27.57,27.57,0,0,1-5.23,6.31c-1,.13-1.3,0-1.4-.22-.28-.45.59-1.25,1.77-3.42.21-.38.37-.7.46-.88a1.08,1.08,0,0,0-.56-.13c-.75,0-1.27.82-1.58,1.26C118.71,114.61,116.77,116.84,115.82,115.17Z" transform="translate(-11.98 -8.97)"/><path class="cls-9" d="M128,98.15a3.65,3.65,0,0,0,2.57-.58,3.55,3.55,0,0,0,1.43-2.9,3.5,3.5,0,0,0-1-2.31,3.85,3.85,0,0,0-2.62-1.13,3.58,3.58,0,0,0-3.53,1.23,3,3,0,0,0-.54,2.11,3.89,3.89,0,0,0,1.81,3.18A3.5,3.5,0,0,0,128,98.15Z" transform="translate(-11.98 -8.97)"/><path class="cls-8" d="M157.16,114.29s-.72,2.67-5.36-6l-3.21-6.53s-8.27-6.51-8-7.34c-.07-.63.07-.85.21-.93.52-.31,1.65,1,4.07,2.75a10.43,10.43,0,0,0,3.41,2,6.62,6.62,0,0,0,4.53-.59,7,7,0,0,0,2.3-2.21,14.09,14.09,0,0,0,1.46-2.62,5.13,5.13,0,0,1,.8-1.46,4.33,4.33,0,0,1,1.33-1s3.65,0-3.21,9.39a14.75,14.75,0,0,0,2.91,8s3.9,5.68,2.6,6.32-4.45-4-4.45-4S157.58,114.05,157.16,114.29Z" transform="translate(-11.98 -8.97)"/><path class="cls-8" d="M150.77,96.66a3,3,0,0,0,3-3.47,3.05,3.05,0,0,0-3.5-3.08,4.06,4.06,0,0,0-3.05,1.78,3.12,3.12,0,0,0-.4,1.56,3.62,3.62,0,0,0,3.91,3.21Z" transform="translate(-11.98 -8.97)"/></g><g id="Layer_2" data-name="Layer 2"><path class="cls-4" d="M166.08,118.3" transform="translate(-11.98 -8.97)"/><path class="cls-4" d="M165.48,116.79" transform="translate(-11.98 -8.97)"/><path class="cls-4" d="M172.73,107.92" transform="translate(-11.98 -8.97)"/><path class="cls-4" d="M158.75,122.59" transform="translate(-11.98 -8.97)"/><path class="cls-4" d="M94.42,113" transform="translate(-11.98 -8.97)"/></g></svg>