<svg xmlns="http://www.w3.org/2000/svg" xmlns:xlink="http://www.w3.org/1999/xlink" viewBox="0 0 256.96 271.03"><defs><style>.cls-1{fill:url(#linear-gradient);}.cls-2{fill:#cbbba0;}.cls-2,.cls-3,.cls-4{stroke:#1d1d1b;}.cls-2,.cls-3,.cls-4,.cls-5,.cls-6,.cls-7,.cls-8,.cls-9{stroke-miterlimit:10;}.cls-3{fill:#fff;}.cls-4{fill:none;}.cls-5{fill:#1b1b1b;}.cls-5,.cls-6{stroke:#1b1b1b;}.cls-5,.cls-7{stroke-width:0.75px;}.cls-6{fill:#1b1c1c;}.cls-7,.cls-8{fill:#028dca;stroke:#028dca;}.cls-9{fill:#1b1d1c;stroke:#1b1d1c;}</style><linearGradient id="linear-gradient" x1="11.98" y1="144.49" x2="268.94" y2="144.49" gradientUnits="userSpaceOnUse"><stop offset="0" stop-color="#fff"/><stop offset="1" stop-color="#fff"/></linearGradient></defs><g id="Layer_1" data-name="Layer 1"><path class="cls-1" d="M95,280h89.53l-.54-8.86s-6.44.44-7.86-2.62c0,0-13.32.55-14-6,0,0-8.19-46.3-5.35-47.83a48.22,48.22,0,0,0,15.07-8.95,106,106,0,0,0,10.92-12c2.17-2.66,4.78-5,6.66-7.86,1.37-2.11,2.37-4.08,4.67-4.92a13.68,13.68,0,0,1,4.39-.43,46.28,46.28,0,0,1,5,.22s7.87-4,10.49-3.93h2.84S243,174,249.48,128.65c0,0,20.2-72,19.44-73.38,0,0,.55-3.49-3.49-3.38h-33S222.51,54,225,38.56L228.3,9.41,51.74,9l3.6,37.24a2.67,2.67,0,0,1,0,1.64c-.43,1.27-1.86,1.82-3,2.18a27,27,0,0,1-7.75,1.51c-4.73,0-9.46.11-14.19,0-3.56-.07-6.14-.11-9.5-.11-3.52,0-6.4.06-8.3.11,0,0-2.29,5.89,1.64,15.07L37.11,151.8S41.47,180,87.33,181.28A113.26,113.26,0,0,0,122.82,215c.13,6-.1,11.33-.43,15.72-.49,6.35-.71,4.22-2.73,19.65a46.31,46.31,0,0,1-3.39,13.54c-.5,1.16-1,2.1-1.31,2.73a24.43,24.43,0,0,1-11,1.86s-1.75,3.6-8.19,2.84L95,280" transform="translate(-11.98 -8.97)"/><path class="cls-2" d="M84.24,168.8a33.41,33.41,0,0,1-7.88-12.12l-8-12.87-10.74-20.7-4.3-5.64c.16-.37.85-1.87,2.16-2.11.94-.17,1.86.38,3.1,1.12.45.27,1.1.71,1.45,1,0,0,.6.4,1.13.79,3.22,2.32,9.35,12.8,9.35,12.8l.56,1a5.39,5.39,0,0,0-3.1,2.88c-1,2.77,1.64,5.82,2.14,6.4s1.44,1.52,2.2,2.25,1,.91,1.73,1.65,1.07,1.13,2.28,2.37c.8.8,1.45,1.46,2,2,1.22,1.2,1.83,1.8,3.5,3.39,4.34,4.14,4.74,5,7.36,7.3a43.68,43.68,0,0,0,5.87,4.26,22.05,22.05,0,0,0-3.78-6.06,20.18,20.18,0,0,0-2.45-2.18c-.49-.36-1.08-.75-1.33-.91-.8-.52-1.29-.81-1.64-1a20.18,20.18,0,0,1-2.59-2c-3.41-3-6.29-5.92-6.29-5.92-2.34-2.38-4.43-4.54-6.25-6.44a4,4,0,0,1-1.29-2.09,4.07,4.07,0,0,1,0-1.58,3.94,3.94,0,0,1,1.82-1.93c1.17-.55,2.53-.29,4.94.78a34.67,34.67,0,0,1,7,4.15c1.72,1.31,4,3.12,6.45,5.44l9.54,5.72,13.75,5.39,9.79,5.8,8.34,7.91s7.49,5.79,7.35,14.92,0,11.29,0,11.29l-.07.41-26.79-.26V189.3a78.06,78.06,0,0,0-15.57-12.71C91.18,173.66,88,172.44,84.24,168.8Z" transform="translate(-11.98 -8.97)"/><path class="cls-2" d="M99.4,147.31a4,4,0,0,1-.78.13,4.18,4.18,0,0,1-1.79-.26c-13.3-10-18.34-13.43-19.91-14.23-.66-.35-1.29-.75-2-1.09-1.52-.8-2.6-1.24-3.45-2.39-.09-.14-.17-.25-.21-.33-.44-3.39-.87-7-1.71-10.69L67,107l-.08-1.85a2.66,2.66,0,0,1,1.81-1c.85,0,2.07.57,4.15,4.67a47.48,47.48,0,0,1,3.45,9.42c.91,3.29,1.2,5,2.56,7.79.21.42,1.92,3.87,2.63,3.65.3-.1.34-.81.32-1.47l-4.6-18.12a2.3,2.3,0,0,1,1.24-1.46c1.09-.36,2.81.67,3.63,2.84q.8,2.39,1.68,4.84,1,2.93,2.13,5.73l2.47,8.43a33.34,33.34,0,0,0,2.48,6.3c.17.33.34.64.51.95l.84,0,.22-.74-2.22-7.64c-.16-.55-.28-.94-.28-.94-.24-.72-.42-1.46-.65-2.19a5.87,5.87,0,0,1-.39-2.15,2.83,2.83,0,0,1,0-.29,2.18,2.18,0,0,1,1.12-1.69c.88-.24,2.13,1.76,2.51,2.36,1.55,2.53,1.8,4.41,2.78,8.08.41,1.56.91,3.16,1.92,6.34.85,2.68,1.6,4.87,2.11,6.34a2.27,2.27,0,0,1,.27,1.37A2.15,2.15,0,0,1,99.4,147.31Z" transform="translate(-11.98 -8.97)"/><path class="cls-2" d="M140.71,196.16l26.37.25-.12-5.83s5.46-7,7.94-8.45,18.56-12.54,18.56-12.54,6.16-5.73,8.24-11.86,10-15.65,10.82-17.59,12.6-22.45,12.6-22.45c.37-.8.29-1.23.13-1.47-.79-1.15-4.81.27-6.1.76l-4.73,4.83-6,8.91s-.46,1.57.69,2.11,3.65,2.81,2.07,5l-2.35,3.81-4.55,6.14-4.19,4.68-6.43,4.88-10,7.1a3.69,3.69,0,0,1,.24-1.23,4,4,0,0,1,.78-1.26,20.31,20.31,0,0,1,2-2.08c1.88-1.59,1.59-1.74,3.14-3a45.51,45.51,0,0,1,4.23-2.8c1.7-1.11,2.68-1.76,3.69-2.54a34.18,34.18,0,0,0,4.54-4.41,67,67,0,0,0,5.65-7.22l1.14-1.42s1.25-4.42-3.3-3.92-5.64,1.73-5.64,1.73l-5.29,3.3s-4.55,3.61-6,5-3.45,3.3-4.94,4-6.71,2.57-6.71,2.57l-8.69,3.46-6.78,3.66-7,4.93-6.32,5.29L143.63,174a13.75,13.75,0,0,0-2.09,3.81,16.32,16.32,0,0,0-.66,2.69,25.06,25.06,0,0,0-.37,3.92C140.42,188.79,140.7,195.85,140.71,196.16Z" transform="translate(-11.98 -8.97)"/><path class="cls-3" d="M219.37,115.84" transform="translate(-11.98 -8.97)"/><path class="cls-2" d="M207.33,128.2l-.55,1.09-11.67,8.16-14.24,10.06s-4.51,1.43-2.85-.81a24.6,24.6,0,0,0,2.85-6q1.08-3.9,2.14-7.8a24.44,24.44,0,0,1,4.45-8.35c.64-.77,2.11-2.54,2.81-2.22s.38,1.85.24,2.69q-.91,3-1.81,6.06l-2.65,7.9s.25.13.7-.19a5.65,5.65,0,0,0,2-2.94c.83-3,2-5.81,2.93-8.76.43-1.44.81-2.63,1.09-3.47.73-2.38,1.47-4.76,2.2-7.14a20.08,20.08,0,0,1,2.36-4.3,20.5,20.5,0,0,1,2.19-2.56c.49-.39,1.23-.9,1.69-.66.63.33.37,1.9.24,2.62-1.13,6.53-4.26,18-4.26,18h0a13.19,13.19,0,0,0,2.66-3c1.81-2.81,1.89-5.35,2.47-8.58a45.14,45.14,0,0,1,2.48-8.63,8.4,8.4,0,0,1,1.79-3.5c.75-.87,2.1-2.42,3.81-2.21a2.9,2.9,0,0,1,1.94,1.14c.63,1,.34,2.13-.17,3.82-.84,2.77-1.64,4.76-1.9,5.48a51.36,51.36,0,0,0-1.9,7.57C208,123.56,207.61,125.73,207.33,128.2Z" transform="translate(-11.98 -8.97)"/><path class="cls-3" d="M221.48,109.47" transform="translate(-11.98 -8.97)"/><path class="cls-4" d="M61.24,179.31" transform="translate(-11.98 -8.97)"/><path class="cls-4" d="M78.74,141.24" transform="translate(-11.98 -8.97)"/><path class="cls-4" d="M104.42,158.23" transform="translate(-11.98 -8.97)"/><path class="cls-4" d="M87.19,135" transform="translate(-11.98 -8.97)"/><path class="cls-5" d="M138.08,148.65c1.64-1.15,3-2.12,4.1-2.85,1.23-.85,1.88-1.28,2.67-1.79.44-.28,1.31-.83,2.47-1.51l1.31-.75c1-.59,1.62-1,2.1-1.26s1.77-1,4.07-2.26c2-1.13,2.36-1.31,3.29-1.84,4-2.3,8.49-5.17,8.49-5.17,6.07-3.89,9.11-5.84,11.61-7.66s6.06-4.54,10-8.06a59.79,59.79,0,0,0,13.13-16.9,60.8,60.8,0,0,0,4.89-16.27,28.48,28.48,0,0,0,.4-5.74,36,36,0,0,0-.69-5.28,45.82,45.82,0,0,0-1.14-5.11,42.38,42.38,0,0,0-1.63-4.65A30,30,0,0,0,197,53a43.48,43.48,0,0,0-5.2-3.78A42.84,42.84,0,0,0,187,46.74a42.17,42.17,0,0,0-4.15-1.42c-4.67-1.34-9-1.72-9.1-1.42s5.62.71,12.3,4.4a39.77,39.77,0,0,1,7.54,5.39,21.18,21.18,0,0,1,5.05,6.94,28.08,28.08,0,0,1,2,7.46,65,65,0,0,1,.95,7.68,32.41,32.41,0,0,1-.19,5.26,32.81,32.81,0,0,1-1.67,7.09,48.34,48.34,0,0,1-1.94,5.55,47.84,47.84,0,0,1-3.77,7.21c-.83,1.22-1.9,2.73-3.22,4.42A78.94,78.94,0,0,1,185,112a97.15,97.15,0,0,1-10.74,9.36c-1.81,1.39-6.28,4.78-12.52,8.79-2.23,1.43-13.06,7.84-16.07,10.55-.11.11-.84.77-2.07,1.88-1.94,1.75-2.18,2-2.54,2.31A20.55,20.55,0,0,0,138.08,148.65Z" transform="translate(-11.98 -8.97)"/><path class="cls-6" d="M201.43,48.79A43.61,43.61,0,0,0,196.16,43,44.18,44.18,0,0,0,191,38.84a52,52,0,0,0-17.83-5.92A48.36,48.36,0,0,0,155,35.46a38.11,38.11,0,0,0-14.19,9.86,17,17,0,0,0-3.05,4.37,16.52,16.52,0,0,0-1.55,5.3l-.1,2.81a24.19,24.19,0,0,1,1.78-4.53,23.43,23.43,0,0,1,3.21-4.67,44.93,44.93,0,0,1,5.78-4.85,45.59,45.59,0,0,1,5.15-3.13A42.82,42.82,0,0,1,166,37.05a47.07,47.07,0,0,1,6.23-.33,46.28,46.28,0,0,1,7.86.8c1.59.44,3.27.95,5,1.56,2.41.85,4.61,1.75,6.59,2.67A25.8,25.8,0,0,1,195,43.66c1.18.79,2,1.48,3.71,2.83C199.83,47.42,200.77,48.22,201.43,48.79Z" transform="translate(-11.98 -8.97)"/><path class="cls-7" d="M143.79,149c-1.64-1.15-3-2.12-4.1-2.85-1.23-.85-1.88-1.28-2.67-1.79-.44-.28-1.31-.83-2.47-1.51l-1.31-.75c-1-.59-1.62-1-2.1-1.26s-1.77-1-4.07-2.26c-2-1.13-2.36-1.31-3.29-1.84-4-2.31-8.49-5.17-8.49-5.17-6.07-3.9-9.11-5.85-11.61-7.66s-6.06-4.54-10-8.06A59.79,59.79,0,0,1,80.51,99a61.31,61.31,0,0,1-4.9-16.27A29.31,29.31,0,0,1,75.22,77a35.81,35.81,0,0,1,.69-5.28,45.82,45.82,0,0,1,1.14-5.11,42.38,42.38,0,0,1,1.63-4.65,30,30,0,0,1,6.22-8.51,42.4,42.4,0,0,1,5.2-3.78,42.84,42.84,0,0,1,4.73-2.52A42.17,42.17,0,0,1,99,45.7c4.67-1.34,9-1.72,9.1-1.42s-5.62.71-12.3,4.39a40.22,40.22,0,0,0-7.54,5.4,21.18,21.18,0,0,0-5,6.94,28.08,28.08,0,0,0-2,7.46,65,65,0,0,0-1,7.68,32.41,32.41,0,0,0,.19,5.26A32.81,32.81,0,0,0,82.1,88.5a48.2,48.2,0,0,0,5.71,12.76c.83,1.22,1.9,2.73,3.22,4.42a78.94,78.94,0,0,0,5.8,6.65,98.29,98.29,0,0,0,10.74,9.36c1.81,1.39,6.28,4.78,12.52,8.79,2.23,1.43,13.06,7.84,16.06,10.55l2.08,1.88c1.94,1.75,2.18,2,2.54,2.31A20.55,20.55,0,0,1,143.79,149Z" transform="translate(-11.98 -8.97)"/><path class="cls-8" d="M77.33,49A45.29,45.29,0,0,1,87.78,39a51.66,51.66,0,0,1,17.84-5.91,47.65,47.65,0,0,1,9.76.49,48.52,48.52,0,0,1,8.36,2,38,38,0,0,1,14.18,9.86,16.71,16.71,0,0,1,4.61,9.67l.09,2.81a22.59,22.59,0,0,0-1.78-4.52,23.67,23.67,0,0,0-3.2-4.68,44.93,44.93,0,0,0-5.78-4.85,46.49,46.49,0,0,0-5.15-3.13,42.46,42.46,0,0,0-13.9-3.56,43.9,43.9,0,0,0-6.23-.33,45.51,45.51,0,0,0-7.87.8c-1.59.43-3.26.94-5,1.55-2.41.85-4.61,1.76-6.6,2.67a26.53,26.53,0,0,0-3.31,1.91,46.48,46.48,0,0,0-3.71,2.83C78.94,47.59,78,48.38,77.33,49Z" transform="translate(-11.98 -8.97)"/><path class="cls-9" d="M111.92,103.68l8.26-16.18s-7.57-11.34-5.45-12.81c0,0,.94-3.68,7.83,8.82,0,0,5.7,5.71,15.9-6.37,0,0,3.5,3.74-10.33,12.57a33.18,33.18,0,0,1-9.39,14.77c-1.2.16-1.55-.06-1.67-.27-.33-.54.7-1.51,2.11-4.13.25-.47.44-.85.55-1.08a1.51,1.51,0,0,0-.67-.15c-.9,0-1.52,1-1.88,1.52C115.36,103,113,105.7,111.92,103.68Z" transform="translate(-11.98 -8.97)"/><path class="cls-9" d="M126.46,83.08a4.06,4.06,0,0,0,4.76-4.21,4.2,4.2,0,0,0-1.13-2.79A4.5,4.5,0,0,0,127,74.71a4.2,4.2,0,0,0-4.21,1.49,3.76,3.76,0,0,0-.64,2.55,4.73,4.73,0,0,0,2.16,3.85A4.14,4.14,0,0,0,126.46,83.08Z" transform="translate(-11.98 -8.97)"/><path class="cls-8" d="M161.19,102.62s-.85,3.23-6.39-7.2L151,87.51s-9.85-7.88-9.56-8.88c-.07-.77.09-1,.26-1.13.62-.37,2,1.21,4.85,3.33,1.9,1.39,2.88,2.1,4.06,2.39a7.81,7.81,0,0,0,5.4-.71,8.55,8.55,0,0,0,2.74-2.68,17.72,17.72,0,0,0,1.75-3.17,6.11,6.11,0,0,1,.95-1.77A5.11,5.11,0,0,1,163,73.63s4.35,0-3.83,11.36a18,18,0,0,0,3.46,9.72s4.65,6.88,3.1,7.65-5.3-4.78-5.3-4.78S161.69,102.33,161.19,102.62Z" transform="translate(-11.98 -8.97)"/><path class="cls-8" d="M153.58,81.28a3.7,3.7,0,0,0,2.37-.8,3.87,3.87,0,0,0,1.25-3.4,4,4,0,0,0-1.82-3.26,3.72,3.72,0,0,0-2.35-.46,4.82,4.82,0,0,0-3.64,2.14,3.84,3.84,0,0,0-.48,1.89,4.62,4.62,0,0,0,2.17,3.34A4.45,4.45,0,0,0,153.58,81.28Z" transform="translate(-11.98 -8.97)"/></g><g id="Layer_2" data-name="Layer 2"><path class="cls-4" d="M171.83,107.46" transform="translate(-11.98 -8.97)"/><path class="cls-4" d="M171.11,105.64" transform="translate(-11.98 -8.97)"/><path class="cls-4" d="M179.75,94.91" transform="translate(-11.98 -8.97)"/><path class="cls-4" d="M163.08,112.66" transform="translate(-11.98 -8.97)"/><path class="cls-4" d="M86.41,101" transform="translate(-11.98 -8.97)"/></g></svg>